PathFileType	4	(X/Y/Z)	C:/Users/beibeiliu/ov580/test_trc/User3\sequence.31_training_dense_right.trc
DataRate	CameraRate	NumFrames	NumMarkers	Units	OrigDataRate	OrigDataStartFrame	OrigNumFrames
120	120	12	19	mm	120	101	268
Frame#	Time	ThumbCMC			ThumbMCP			ThumbIP			ThumbTip			IndexMCP			IndexPIP			IndexTip			MiddleMCP			MiddlePIP			MiddleTip			RingMCP			RingPIP			RingTip			PinkyMCP			PinkyPIP			PinkyTip			BackHand1			BackHand2			BackHand3	
		X0	Y0	Z0	X1	Y1	Z1	X2	Y2	Z2	X3	Y3	Z3	X4	Y4	Z4	X5	Y5	Z5	X6	Y6	Z6	X7	Y7	Z7	X8	Y8	Z8	X9	Y9	Z9	X10	Y10	Z10	X11	Y11	Z11	X12	Y12	Z12	X13	Y13	Z13	X14	Y14	Z14	X15	Y15	Z15	X16	Y16	Z16	X17	Y17	Z17	X18	Y18	Z18	
100	0.833333	196.771	-7.41386	2.2241	164.432	-0.214481	-18.9596	137.755	-15.8291	-29.9873	126.942	-41.1727	-18.6403	177.722	-36.6618	-66.0149	156.123	-30.4265	-87.3521	136.45	-17.0112	-96.1163	172.877	-53.1743	-65.9444	160.846	-50.1887	-93.322	137.34	-44.7444	-117.954	160.391	-65.5068	-52.7411	145.071	-65.3718	-78.5812	129.86	-55.7746	-93.8289	142.93	-68.3274	-27.0522	121.876	-56.1797	-42.9204	123.502	-31.3661	-20.8637	180.082	-70.8258	-4.28704	190.325	-69.6278	24.7844	207.968	-46.8984	-2.35967	
101	0.841667	199.22	-8.58103	2.39535	166.28	-2.87624	-17.9448	138.176	-12.2944	-27.281	126.114	-34.71	-20.0266	180.477	-37.1387	-66.7688	161.395	-32.48	-90.9822	139.132	-24.6198	-104.59	171.275	-52.7416	-69.6478	161.335	-50.0495	-91.4419	142.347	-44.567	-119.309	157.44	-63.219	-51.2294	143.236	-66.6114	-75.4123	132.861	-62.6382	-97.2777	136.783	-68.1508	-28.6175	115.071	-53.2311	-37.0208	126.228	-27.3809	-21.1297	183.161	-66.9873	-3.82456	194.312	-68.1692	21.7675	208.395	-49.4356	-6.37951	
102	0.85	196.132	-11.0578	1.17721	163.916	-1.53627	-19.285	138.983	-16.3661	-26.0116	123.509	-37.8526	-19.7214	181.793	-35.2026	-68.8855	165.671	-30.3753	-92.0732	147.391	-20.1874	-109.96	170.402	-55.301	-64.6861	158.9	-52.7054	-91.8701	143.907	-47.3667	-121.995	157.368	-64.3944	-51.7196	143.908	-68.1057	-74.842	129.515	-67.9211	-95.4762	136.084	-70.8924	-25.3945	113.965	-55.7406	-35.4076	122.449	-30.8413	-25.8536	178.992	-68.3545	-2.77455	189.684	-69.2301	23.3104	208.68	-48.3677	-3.95242	
103	0.858333	198.559	-8.23538	1.56023	162.208	-0.177431	-19.1609	132.593	-16.7905	-28.872	124.212	-41.5043	-14.7455	179.899	-37.3274	-70.462	166.585	-35.6349	-88.638	154.08	-32.3446	-115.372	170.925	-51.8905	-65.6481	159.804	-53.9602	-93.3592	152.158	-52.4854	-122.268	155.636	-66.4149	-49.3827	145.452	-69.267	-70.399	130.953	-69.9548	-93.6586	137.663	-66.7057	-23.9128	112.6	-52.0885	-33.3205	124.414	-26.4062	-24.6687	179.368	-69.9176	-2.5312	190.763	-66.7719	20.4389	209.42	-47.6144	-5.89062	
104	0.866667	199.33	-8.81851	-0.233275	168.187	0.706201	-16.5618	139.488	-12.9459	-25.3676	124.456	-34.9489	-17.4751	181.84	-36.5121	-67.7158	172.125	-32.9832	-96.2123	163.306	-29.5169	-118.374	171.266	-54.1451	-66.6733	162.759	-54.1189	-90.1366	151.492	-54.0357	-123.16	153.828	-66.8985	-48.3806	145.013	-66.2129	-71.4966	126.573	-68.0473	-91.8869	140.829	-67.0849	-24.8971	122.239	-47.1646	-38.5992	120.749	-28.9349	-15.5318	178.832	-70.2341	-5.18219	196.649	-68.1808	22.0488	208.591	-47.2189	-10.3523	
105	0.875	196.964	-6.54241	3.04386	167.155	2.96774	-17.5941	139.074	-15.507	-30.1407	125.891	-36.3488	-20.8778	184.201	-34.6657	-67.2368	178.897	-29.2311	-92.0302	167.516	-27.491	-113.661	172.148	-53.8015	-66.8982	163.992	-49.7598	-91.9468	154.162	-51.056	-117.248	159.317	-63.2402	-49.0596	144.972	-65.0204	-68.5775	124.51	-60.0694	-92.1247	150.337	-68.4801	-27.1547	130.683	-58.0093	-41.1355	123.422	-36.6978	-16.546	184.292	-68.3229	-4.7632	202.191	-64.7054	25.3777	213.156	-41.6402	-5.09148	
106	0.883333	197.339	-6.14487	3.53804	166.162	2.25029	-17.972	142.249	-14.9783	-25.3132	128.135	-41.1635	-17.3532	186.425	-34.2405	-64.4884	179.762	-30.3491	-92.3656	172.429	-26.9409	-114.858	175.417	-51.5757	-63.7523	165.44	-48.4644	-92.0551	148.678	-44.2841	-120.906	156.666	-64.7087	-49.3184	141.843	-59.677	-71.9393	119.905	-50.5243	-86.1847	147.104	-66.9623	-27.3942	124.553	-55.9148	-38.5095	124.882	-34.4756	-14.8578	183.84	-69.6755	-3.72058	196.921	-67.1278	21.6108	211.285	-44.0231	-4.39902	
107	0.891667	198.144	-6.98658	4.43646	166.863	1.62831	-17.4688	137.748	-11.9141	-28.4756	124.984	-34.8342	-20.2801	185.413	-33.5175	-69.3055	182.799	-30.0117	-91.0569	173.825	-31.3873	-119.171	170.684	-52.3358	-65.0469	160.345	-49.1776	-92.9347	144.049	-40.5481	-124.027	150.486	-61.2753	-54.7841	132.191	-51.924	-73.9825	107.696	-35.4611	-79.5528	152.196	-66.4144	-30.8176	135.622	-55.3285	-50.7077	123.888	-34.3126	-28.547	182.273	-67.3686	-10.5583	194.238	-70.1719	18.3201	210.405	-43.5226	-4.0343	
108	0.9	195.492	-5.15089	7.83583	167.823	1.3624	-17.1761	142.915	-15.5888	-27.5635	133.842	-42.5096	-17.7047	186.657	-31.1258	-65.8054	182.155	-28.3342	-89.7866	176.216	-25.2435	-114.46	171.906	-50.0905	-63.4279	160.603	-44.6035	-91.5184	138.421	-38.2951	-117.709	150.627	-54.5965	-50.6558	128.104	-47.6313	-68.0378	106.728	-31.0361	-75.9489	153.614	-69.075	-31.8307	137.815	-57.8703	-49.6851	126.233	-37.5268	-33.8887	181.509	-66.8522	-6.5344	194.063	-68.0046	21.2405	211.015	-40.3972	-1.23887	
109	0.908333	193.568	-0.919024	-0.0604543	162.883	1.27286	-18.8612	134.401	-17.0438	-29.0773	128.255	-41.1565	-15.9162	187.835	-32.4476	-69.8478	184.372	-25.6769	-96.065	178.249	-21.2816	-116.336	165.837	-48.2311	-67.6552	152.23	-43.4938	-90.4899	136.179	-39.7924	-113.616	151.443	-56.4566	-51.4561	129.596	-50.7255	-66.2857	106.186	-39.1321	-70.7519	133.336	-63.0478	-20.1249	120.458	-37.1041	-23.8197	141.178	-23.3948	-6.54025	185.37	-62.5328	-5.1967	194.62	-61.9305	27.0063	212.385	-37.5323	-3.54005	
110	0.916667	196.256	-1.44537	-0.463551	160.732	2.21937	-20.2998	133.363	-18.6941	-25.2245	129.876	-40.8317	-10.2744	185.244	-28.459	-66.1737	178.191	-24.2117	-94.6218	172.689	-18.9203	-117.963	168.862	-47.4318	-69.2268	156.436	-43.9503	-90.3282	134.746	-36.7398	-115.694	149.594	-57.1036	-45.8408	124.359	-50.126	-65.8494	101.201	-36.6012	-73.64	150.161	-66.1108	-28.7555	130.557	-57.1936	-44.4346	120.654	-34.698	-26.2713	184.216	-62.538	-4.28817	197.706	-62.3588	24.6235	209.579	-39.1852	-3.59999	
111	0.925	194.471	-1.64209	-0.377225	161.926	0.464242	-17.8089	134.236	-15.7921	-25.3566	128.329	-37.386	-11.6642	183.027	-29.3456	-70.2355	178.62	-24.2212	-93.9836	168.612	-18.2382	-120.347	166.975	-51.1595	-66.9704	153.617	-46.1899	-91.6163	137.938	-37.3264	-115.72	146.431	-57.0843	-47.4119	125.57	-50.1782	-64.1982	102.987	-33.7686	-76.1499	147.541	-68.6091	-25.5749	128.67	-58.3625	-43.975	120.9	-35.8602	-28.4278	180.704	-63.9205	-3.79453	196.414	-60.7423	20.4468	205.676	-41.2019	-5.96756	
